<svg width="206" height="28" viewBox="0 0 206 28" fill="none" xmlns="http://www.w3.org/2000/svg">
<path d="M7.58 22.743L0.881 15.45L7.58 8.157H14.675L7.943 15.45L14.675 22.743H7.58Z" fill="black"/>
<path d="M18.0998 17.76C18.0998 15.868 18.4518 14.207 19.1558 12.777C19.8818 11.347 20.8608 10.247 22.0928 9.477C23.3248 8.707 24.6998 8.322 26.2178 8.322C27.4278 8.322 28.5278 8.575 29.5178 9.081C30.5298 9.587 31.3218 10.269 31.8938 11.127V2.58H37.5368V27H31.8938V24.36C31.3658 25.24 30.6068 25.944 29.6168 26.472C28.6488 27 27.5158 27.264 26.2178 27.264C24.6998 27.264 23.3248 26.879 22.0928 26.109C20.8608 25.317 19.8818 24.206 19.1558 22.776C18.4518 21.324 18.0998 19.652 18.0998 17.76ZM31.8938 17.793C31.8938 16.385 31.4978 15.274 30.7058 14.46C29.9358 13.646 28.9898 13.239 27.8678 13.239C26.7458 13.239 25.7888 13.646 24.9968 14.46C24.2268 15.252 23.8418 16.352 23.8418 17.76C23.8418 19.168 24.2268 20.29 24.9968 21.126C25.7888 21.94 26.7458 22.347 27.8678 22.347C28.9898 22.347 29.9358 21.94 30.7058 21.126C31.4978 20.312 31.8938 19.201 31.8938 17.793ZM44.4572 6.672C43.4672 6.672 42.6532 6.386 42.0152 5.814C41.3992 5.22 41.0912 4.494 41.0912 3.636C41.0912 2.756 41.3992 2.03 42.0152 1.458C42.6532 0.863998 43.4672 0.566998 44.4572 0.566998C45.4252 0.566998 46.2172 0.863998 46.8332 1.458C47.4712 2.03 47.7902 2.756 47.7902 3.636C47.7902 4.494 47.4712 5.22 46.8332 5.814C46.2172 6.386 45.4252 6.672 44.4572 6.672ZM47.2622 8.586V27H41.6192V8.586H47.2622ZM59.6347 21.72L63.6277 8.586H69.6337L63.0997 27H56.1367L49.6027 8.586H55.6417L59.6347 21.72Z" fill="#7F1EFF"/>
<path d="M77.8801 17.793C77.8801 15.879 78.2651 14.207 79.0351 12.777C79.8271 11.347 80.9161 10.247 82.3021 9.477C83.7101 8.707 85.3161 8.322 87.1201 8.322C89.4301 8.322 91.3551 8.927 92.8951 10.137C94.4571 11.347 95.4801 13.052 95.9641 15.252H89.9581C89.4521 13.844 88.4731 13.14 87.0211 13.14C85.9871 13.14 85.1621 13.547 84.5461 14.361C83.9301 15.153 83.6221 16.297 83.6221 17.793C83.6221 19.289 83.9301 20.444 84.5461 21.258C85.1621 22.05 85.9871 22.446 87.0211 22.446C88.4731 22.446 89.4521 21.742 89.9581 20.334H95.9641C95.4801 22.49 94.4571 24.184 92.8951 25.416C91.3331 26.648 89.4081 27.264 87.1201 27.264C85.3161 27.264 83.7101 26.879 82.3021 26.109C80.9161 25.339 79.8271 24.239 79.0351 22.809C78.2651 21.379 77.8801 19.707 77.8801 17.793ZM104.626 2.58V27H98.9825V2.58H104.626ZM107.593 17.76C107.593 15.868 107.945 14.207 108.649 12.777C109.375 11.347 110.354 10.247 111.586 9.477C112.818 8.707 114.193 8.322 115.711 8.322C117.009 8.322 118.142 8.586 119.11 9.114C120.1 9.642 120.859 10.335 121.387 11.193V8.586H127.03V27H121.387V24.393C120.837 25.251 120.067 25.944 119.077 26.472C118.109 27 116.976 27.264 115.678 27.264C114.182 27.264 112.818 26.879 111.586 26.109C110.354 25.317 109.375 24.206 108.649 22.776C107.945 21.324 107.593 19.652 107.593 17.76ZM121.387 17.793C121.387 16.385 120.991 15.274 120.199 14.46C119.429 13.646 118.483 13.239 117.361 13.239C116.239 13.239 115.282 13.646 114.49 14.46C113.72 15.252 113.335 16.352 113.335 17.76C113.335 19.168 113.72 20.29 114.49 21.126C115.282 21.94 116.239 22.347 117.361 22.347C118.483 22.347 119.429 21.94 120.199 21.126C120.991 20.312 121.387 19.201 121.387 17.793ZM138.603 27.264C136.997 27.264 135.567 26.989 134.313 26.439C133.059 25.889 132.069 25.141 131.343 24.195C130.617 23.227 130.21 22.149 130.122 20.961H135.699C135.765 21.599 136.062 22.116 136.59 22.512C137.118 22.908 137.767 23.106 138.537 23.106C139.241 23.106 139.78 22.974 140.154 22.71C140.55 22.424 140.748 22.061 140.748 21.621C140.748 21.093 140.473 20.708 139.923 20.466C139.373 20.202 138.482 19.916 137.25 19.608C135.93 19.3 134.83 18.981 133.95 18.651C133.07 18.299 132.311 17.76 131.673 17.034C131.035 16.286 130.716 15.285 130.716 14.031C130.716 12.975 131.002 12.018 131.574 11.16C132.168 10.28 133.026 9.587 134.148 9.081C135.292 8.575 136.645 8.322 138.207 8.322C140.517 8.322 142.332 8.894 143.652 10.038C144.994 11.182 145.764 12.7 145.962 14.592H140.748C140.66 13.954 140.374 13.448 139.89 13.074C139.428 12.7 138.812 12.513 138.042 12.513C137.382 12.513 136.876 12.645 136.524 12.909C136.172 13.151 135.996 13.492 135.996 13.932C135.996 14.46 136.271 14.856 136.821 15.12C137.393 15.384 138.273 15.648 139.461 15.912C140.825 16.264 141.936 16.616 142.794 16.968C143.652 17.298 144.4 17.848 145.038 18.618C145.698 19.366 146.039 20.378 146.061 21.654C146.061 22.732 145.753 23.7 145.137 24.558C144.543 25.394 143.674 26.054 142.53 26.538C141.408 27.022 140.099 27.264 138.603 27.264ZM157.005 27.264C155.399 27.264 153.969 26.989 152.715 26.439C151.461 25.889 150.471 25.141 149.745 24.195C149.019 23.227 148.612 22.149 148.524 20.961H154.101C154.167 21.599 154.464 22.116 154.992 22.512C155.52 22.908 156.169 23.106 156.939 23.106C157.643 23.106 158.182 22.974 158.556 22.71C158.952 22.424 159.15 22.061 159.15 21.621C159.15 21.093 158.875 20.708 158.325 20.466C157.775 20.202 156.884 19.916 155.652 19.608C154.332 19.3 153.232 18.981 152.352 18.651C151.472 18.299 150.713 17.76 150.075 17.034C149.437 16.286 149.118 15.285 149.118 14.031C149.118 12.975 149.404 12.018 149.976 11.16C150.57 10.28 151.428 9.587 152.55 9.081C153.694 8.575 155.047 8.322 156.609 8.322C158.919 8.322 160.734 8.894 162.054 10.038C163.396 11.182 164.166 12.7 164.364 14.592H159.15C159.062 13.954 158.776 13.448 158.292 13.074C157.83 12.7 157.214 12.513 156.444 12.513C155.784 12.513 155.278 12.645 154.926 12.909C154.574 13.151 154.398 13.492 154.398 13.932C154.398 14.46 154.673 14.856 155.223 15.12C155.795 15.384 156.675 15.648 157.863 15.912C159.227 16.264 160.338 16.616 161.196 16.968C162.054 17.298 162.802 17.848 163.44 18.618C164.1 19.366 164.441 20.378 164.463 21.654C164.463 22.732 164.155 23.7 163.539 24.558C162.945 25.394 162.076 26.054 160.932 26.538C159.81 27.022 158.501 27.264 157.005 27.264ZM186.593 8.751V13.734H168.113V8.751H186.593ZM186.593 17.166V22.149H168.113V17.166H186.593ZM192.18 3.834H197.955L194.259 12.678H190.464L192.18 3.834ZM199.671 3.834H205.446L201.75 12.678H197.955L199.671 3.834Z" fill="#D5D5D6"/>
</svg>
