<svg width="122" height="99" viewBox="0 0 122 99" fill="none" xmlns="http://www.w3.org/2000/svg">
<path d="M7.689 44.644H15.081V49H2.046V25.834H7.689V44.644Z" fill="#7F1EFF"/>
<path d="M26.1546 49.264C24.3506 49.264 22.7226 48.879 21.2706 48.109C19.8406 47.339 18.7076 46.239 17.8716 44.809C17.0576 43.379 16.6506 41.707 16.6506 39.793C16.6506 37.901 17.0686 36.24 17.9046 34.81C18.7406 33.358 19.8846 32.247 21.3366 31.477C22.7886 30.707 24.4166 30.322 26.2206 30.322C28.0246 30.322 29.6526 30.707 31.1046 31.477C32.5566 32.247 33.7006 33.358 34.5366 34.81C35.3726 36.24 35.7906 37.901 35.7906 39.793C35.7906 41.685 35.3616 43.357 34.5036 44.809C33.6676 46.239 32.5126 47.339 31.0386 48.109C29.5866 48.879 27.9586 49.264 26.1546 49.264ZM26.1546 44.38C27.2326 44.38 28.1456 43.984 28.8936 43.192C29.6636 42.4 30.0486 41.267 30.0486 39.793C30.0486 38.319 29.6746 37.186 28.9266 36.394C28.2006 35.602 27.2986 35.206 26.2206 35.206C25.1206 35.206 24.2076 35.602 23.4816 36.394C22.7556 37.164 22.3926 38.297 22.3926 39.793C22.3926 41.267 22.7446 42.4 23.4486 43.192C24.1746 43.984 25.0766 44.38 26.1546 44.38ZM45.7803 30.322C47.0783 30.322 48.2113 30.586 49.1793 31.114C50.1693 31.642 50.9283 32.335 51.4563 33.193V30.586H57.0993V48.967C57.0993 50.661 56.7583 52.19 56.0763 53.554C55.4163 54.94 54.3933 56.04 53.0073 56.854C51.6433 57.668 49.9383 58.075 47.8923 58.075C45.1643 58.075 42.9533 57.426 41.2593 56.128C39.5653 54.852 38.5973 53.114 38.3553 50.914H43.9323C44.1083 51.618 44.5263 52.168 45.1863 52.564C45.8463 52.982 46.6603 53.191 47.6283 53.191C48.7943 53.191 49.7183 52.85 50.4003 52.168C51.1043 51.508 51.4563 50.441 51.4563 48.967V46.36C50.9063 47.218 50.1473 47.922 49.1793 48.472C48.2113 49 47.0783 49.264 45.7803 49.264C44.2623 49.264 42.8873 48.879 41.6553 48.109C40.4233 47.317 39.4443 46.206 38.7183 44.776C38.0143 43.324 37.6623 41.652 37.6623 39.76C37.6623 37.868 38.0143 36.207 38.7183 34.777C39.4443 33.347 40.4233 32.247 41.6553 31.477C42.8873 30.707 44.2623 30.322 45.7803 30.322ZM51.4563 39.793C51.4563 38.385 51.0603 37.274 50.2683 36.46C49.4983 35.646 48.5523 35.239 47.4303 35.239C46.3083 35.239 45.3513 35.646 44.5593 36.46C43.7893 37.252 43.4043 38.352 43.4043 39.76C43.4043 41.168 43.7893 42.29 44.5593 43.126C45.3513 43.94 46.3083 44.347 47.4303 44.347C48.5523 44.347 49.4983 43.94 50.2683 43.126C51.0603 42.312 51.4563 41.201 51.4563 39.793ZM69.5637 49.264C67.7597 49.264 66.1317 48.879 64.6797 48.109C63.2497 47.339 62.1167 46.239 61.2807 44.809C60.4667 43.379 60.0597 41.707 60.0597 39.793C60.0597 37.901 60.4777 36.24 61.3137 34.81C62.1497 33.358 63.2937 32.247 64.7457 31.477C66.1977 30.707 67.8257 30.322 69.6297 30.322C71.4337 30.322 73.0617 30.707 74.5137 31.477C75.9657 32.247 77.1097 33.358 77.9457 34.81C78.7817 36.24 79.1997 37.901 79.1997 39.793C79.1997 41.685 78.7707 43.357 77.9127 44.809C77.0767 46.239 75.9217 47.339 74.4477 48.109C72.9957 48.879 71.3677 49.264 69.5637 49.264ZM69.5637 44.38C70.6417 44.38 71.5547 43.984 72.3027 43.192C73.0727 42.4 73.4577 41.267 73.4577 39.793C73.4577 38.319 73.0837 37.186 72.3357 36.394C71.6097 35.602 70.7077 35.206 69.6297 35.206C68.5297 35.206 67.6167 35.602 66.8907 36.394C66.1647 37.164 65.8017 38.297 65.8017 39.793C65.8017 41.267 66.1537 42.4 66.8577 43.192C67.5837 43.984 68.4857 44.38 69.5637 44.38Z" fill="#D5D5D6"/>
<path d="M48.689 81.644H56.081V86H43.046V62.834H48.689V81.644ZM67.1546 86.264C65.3506 86.264 63.7226 85.879 62.2706 85.109C60.8406 84.339 59.7076 83.239 58.8716 81.809C58.0576 80.379 57.6506 78.707 57.6506 76.793C57.6506 74.901 58.0686 73.24 58.9046 71.81C59.7406 70.358 60.8846 69.247 62.3366 68.477C63.7886 67.707 65.4166 67.322 67.2206 67.322C69.0246 67.322 70.6526 67.707 72.1046 68.477C73.5566 69.247 74.7006 70.358 75.5366 71.81C76.3726 73.24 76.7906 74.901 76.7906 76.793C76.7906 78.685 76.3616 80.357 75.5036 81.809C74.6676 83.239 73.5126 84.339 72.0386 85.109C70.5866 85.879 68.9586 86.264 67.1546 86.264ZM67.1546 81.38C68.2326 81.38 69.1456 80.984 69.8936 80.192C70.6636 79.4 71.0486 78.267 71.0486 76.793C71.0486 75.319 70.6746 74.186 69.9266 73.394C69.2006 72.602 68.2986 72.206 67.2206 72.206C66.1206 72.206 65.2076 72.602 64.4816 73.394C63.7556 74.164 63.3926 75.297 63.3926 76.793C63.3926 78.267 63.7446 79.4 64.4486 80.192C65.1746 80.984 66.0766 81.38 67.1546 81.38ZM110.564 86.264C108.76 86.264 107.132 85.879 105.68 85.109C104.25 84.339 103.117 83.239 102.281 81.809C101.467 80.379 101.06 78.707 101.06 76.793C101.06 74.901 101.478 73.24 102.314 71.81C103.15 70.358 104.294 69.247 105.746 68.477C107.198 67.707 108.826 67.322 110.63 67.322C112.434 67.322 114.062 67.707 115.514 68.477C116.966 69.247 118.11 70.358 118.946 71.81C119.782 73.24 120.2 74.901 120.2 76.793C120.2 78.685 119.771 80.357 118.913 81.809C118.077 83.239 116.922 84.339 115.448 85.109C113.996 85.879 112.368 86.264 110.564 86.264ZM110.564 81.38C111.642 81.38 112.555 80.984 113.303 80.192C114.073 79.4 114.458 78.267 114.458 76.793C114.458 75.319 114.084 74.186 113.336 73.394C112.61 72.602 111.708 72.206 110.63 72.206C109.53 72.206 108.617 72.602 107.891 73.394C107.165 74.164 106.802 75.297 106.802 76.793C106.802 78.267 107.154 79.4 107.858 80.192C108.584 80.984 109.486 81.38 110.564 81.38Z" fill="#D5D5D6"/>
<path d="M86.7803 67.322C88.0783 67.322 89.2113 67.586 90.1793 68.114C91.1693 68.642 91.9283 69.335 92.4563 70.193V67.586H98.0993V85.967C98.0993 87.661 97.7583 89.19 97.0763 90.554C96.4163 91.94 95.3933 93.04 94.0073 93.854C92.6433 94.668 90.9383 95.075 88.8923 95.075C86.1643 95.075 83.9533 94.426 82.2593 93.128C80.5653 91.852 79.5973 90.114 79.3553 87.914H84.9323C85.1083 88.618 85.5263 89.168 86.1863 89.564C86.8463 89.982 87.6603 90.191 88.6283 90.191C89.7943 90.191 90.7183 89.85 91.4003 89.168C92.1043 88.508 92.4563 87.441 92.4563 85.967V83.36C91.9063 84.218 91.1473 84.922 90.1793 85.472C89.2113 86 88.0783 86.264 86.7803 86.264C85.2623 86.264 83.8873 85.879 82.6553 85.109C81.4233 84.317 80.4443 83.206 79.7183 81.776C79.0143 80.324 78.6623 78.652 78.6623 76.76C78.6623 74.868 79.0143 73.207 79.7183 71.777C80.4443 70.347 81.4233 69.247 82.6553 68.477C83.8873 67.707 85.2623 67.322 86.7803 67.322ZM92.4563 76.793C92.4563 75.385 92.0603 74.274 91.2683 73.46C90.4983 72.646 89.5523 72.239 88.4303 72.239C87.3083 72.239 86.3513 72.646 85.5593 73.46C84.7893 74.252 84.4043 75.352 84.4043 76.76C84.4043 78.168 84.7893 79.29 85.5593 80.126C86.3513 80.94 87.3083 81.347 88.4303 81.347C89.5523 81.347 90.4983 80.94 91.2683 80.126C92.0603 79.312 92.4563 78.201 92.4563 76.793Z" fill="#7F1EFF"/>
</svg>
